<svg xmlns="http://www.w3.org/2000/svg" viewBox="0 0 24 24" fill="currentColor" stroke="none" stroke-width="1" stroke-linecap="round" stroke-linejoin="round">
    <path d="M20.314 4.292c-1.553-0.72-3.207-1.25-4.949-1.553-0.215 0.379-0.467 0.896-0.631 1.313-1.843-0.278-3.674-0.278-5.48 0-0.177-0.417-0.429-0.934-0.644-1.313-1.742 0.303-3.396 0.833-4.949 1.553-3.131 4.722-3.977 9.331-3.561 13.864 2.083 1.553 4.091 2.487 6.073 3.106 0.492-0.669 0.922-1.389 1.301-2.134-0.72-0.265-1.402-0.606-2.045-0.997 0.177-0.126 0.341-0.265 0.505-0.391 3.952 1.843 8.232 1.843 12.134 0 0.164 0.139 0.328 0.265 0.505 0.391-0.644 0.391-1.338 0.72-2.045 0.997 0.379 0.745 0.808 1.465 1.301 2.134 1.982-0.619 4.003-1.553 6.073-3.106 0.492-5.265-0.846-9.823-3.561-13.864h-0.025zM8.003 15.378c-1.187 0-2.159-1.098-2.159-2.45s0.947-2.45 2.159-2.45c1.212 0 2.172 1.098 2.159 2.45 0 1.338-0.947 2.449-2.159 2.449zM15.97 15.378c-1.187 0-2.159-1.098-2.159-2.45s0.947-2.45 2.159-2.45c1.212 0 2.172 1.098 2.159 2.45 0 1.338-0.947 2.449-2.159 2.449z" />
</svg>
