<svg xmlns="http://www.w3.org/2000/svg" viewBox="0 0 24 24" fill="currentColor" stroke="none" stroke-width="1" stroke-linecap="round" stroke-linejoin="round">
    <path d="M17.999 0.005l-3.112-0.005c-3.497 0-5.756 2.318-5.756 5.906v2.723h-3.129c-0.27 0-0.489 0.219-0.489 0.49v3.946c0 0.27 0.219 0.489 0.489 0.489h3.129v9.956c0 0.27 0.219 0.489 0.489 0.489h4.083c0.27 0 0.489-0.219 0.489-0.489v-9.956h3.659c0.27 0 0.489-0.219 0.489-0.489l0.002-3.946c0-0.13-0.052-0.254-0.143-0.346s-0.216-0.144-0.346-0.144h-3.66v-2.309c0-1.11 0.264-1.673 1.71-1.673l2.097-0.001c0.27 0 0.489-0.219 0.489-0.489v-3.664c0-0.27-0.219-0.489-0.489-0.489z" />
</svg>
