<svg xmlns="http://www.w3.org/2000/svg" viewBox="0 0 24 24" fill="currentColor" stroke="none" stroke-width="1" stroke-linecap="round" stroke-linejoin="round">
    <path d="M19.846 5.594c0 0.795-0.645 1.44-1.44 1.44s-1.44-0.645-1.44-1.44c0-0.795 0.645-1.44 1.44-1.44s1.44 0.645 1.44 1.44z" />
    <path d="M12 5.838c-3.403 0-6.162 2.759-6.162 6.162s2.759 6.162 6.162 6.162c3.403 0 6.162-2.759 6.162-6.162v0c0-3.403-2.759-6.162-6.162-6.162v0zM12 16c-2.209 0-4-1.791-4-4s1.791-4 4-4c2.209 0 4 1.791 4 4v0c0 2.209-1.791 4-4 4v0z" />
    <path d="M12 2.162c3.204 0 3.584 0.012 4.849 0.070 0.803 0.010 1.567 0.161 2.274 0.428l-0.046-0.015c1.050 0.413 1.865 1.228 2.268 2.25l0.009 0.027c0.253 0.661 0.403 1.426 0.413 2.224l0 0.004c0.058 1.265 0.070 1.645 0.070 4.849s-0.012 3.584-0.070 4.849c-0.010 0.803-0.161 1.567-0.428 2.274l0.015-0.046c-0.413 1.050-1.228 1.865-2.25 2.268l-0.027 0.009c-0.661 0.253-1.426 0.403-2.224 0.413l-0.004 0c-1.265 0.058-1.645 0.070-4.849 0.070s-3.584-0.012-4.849-0.070c-0.803-0.010-1.567-0.161-2.274-0.428l0.046 0.015c-1.050-0.413-1.865-1.228-2.268-2.25l-0.009-0.027c-0.253-0.661-0.403-1.426-0.413-2.224l-0-0.004c-0.058-1.265-0.070-1.645-0.070-4.849s0.012-3.584 0.070-4.849c0.010-0.803 0.161-1.567 0.428-2.274l-0.015 0.046c0.413-1.050 1.228-1.865 2.25-2.268l0.027-0.009c0.661-0.253 1.426-0.403 2.224-0.413l0.004-0c1.265-0.058 1.645-0.070 4.849-0.070zM12 0c-3.259 0-3.668 0.014-4.948 0.072-1.052 0.022-2.050 0.224-2.973 0.578l0.060-0.020c-1.617 0.637-2.873 1.893-3.495 3.468l-0.015 0.042c-0.333 0.863-0.536 1.861-0.558 2.904l-0 0.009c-0.058 1.279-0.072 1.688-0.072 4.947s0.014 3.668 0.072 4.948c0.022 1.052 0.224 2.050 0.578 2.973l-0.020-0.060c0.637 1.617 1.893 2.873 3.468 3.495l0.042 0.015c0.863 0.333 1.861 0.536 2.904 0.558l0.009 0c1.279 0.058 1.688 0.072 4.947 0.072s3.668-0.014 4.948-0.072c1.052-0.022 2.050-0.224 2.973-0.578l-0.060 0.020c1.617-0.637 2.873-1.893 3.495-3.468l0.015-0.042c0.333-0.863 0.536-1.861 0.558-2.904l0-0.009c0.058-1.279 0.072-1.688 0.072-4.947s-0.014-3.668-0.072-4.948c-0.022-1.052-0.224-2.050-0.578-2.973l0.020 0.060c-0.637-1.617-1.893-2.872-3.468-3.495l-0.042-0.014c-0.863-0.333-1.861-0.536-2.904-0.558l-0.009-0c-1.279-0.059-1.688-0.073-4.947-0.073z" />
</svg>
