<svg xmlns="http://www.w3.org/2000/svg" viewBox="0 0 24 24" fill="currentColor" stroke="none" stroke-width="1" stroke-linecap="round" stroke-linejoin="round">
    <path d="M3.223 0.197h-0.003c-0.856 0-1.663 0.333-2.272 0.937-0.611 0.606-0.948 1.409-0.948 2.263-0 0.872 0.344 1.69 0.967 2.301 0.604 0.592 1.429 0.924 2.228 0.905 0.023 0 0.046 0.001 0.070 0.001 0.801 0 1.594-0.326 2.185-0.902 0.623-0.607 0.967-1.421 0.969-2.293 0.002-0.853-0.332-1.658-0.938-2.267s-1.408-0.944-2.257-0.944z" />
    <path d="M4.8 7.403h-3.234c-0.643 0-1.166 0.54-1.166 1.202v13.998c0 0.649 0.55 1.197 1.2 1.197h3.2c0.65 0 1.2-0.537 1.2-1.172v-14.024c0-0.65-0.55-1.2-1.2-1.2z" />
    <path d="M18.452 7.003h-0.843c-1.553 0-3.043 0.662-4.009 1.754v-0.554c0-0.396-0.404-0.8-0.8-0.8h-4c-0.37 0-0.8 0.328-0.8 0.751v14.925c0 0.424 0.422 0.72 0.8 0.721l4.4 0.001c0.378 0 0.8-0.296 0.8-0.721v-8.623c0-1.301 0.964-2.331 2.196-2.345 0.626-0.014 1.218 0.233 1.66 0.676 0.366 0.366 0.544 0.9 0.544 1.634v8.58c0 0.396 0.404 0.8 0.8 0.8h4c0.396 0 0.8-0.404 0.8-0.8v-10.324c0-3.183-2.437-5.676-5.548-5.676z" />
</svg>
