<svg xmlns="http://www.w3.org/2000/svg" viewBox="0 0 24 24" fill="currentColor" stroke="none" stroke-width="1" stroke-linecap="round" stroke-linejoin="round">
    <path d="M9.205 8.658v-2.26c0-0.19 0.072-0.333 0.238-0.428l4.543-2.616c0.619-0.357 1.356-0.523 2.117-0.523 2.854 0 4.662 2.212 4.662 4.566 0 0.167 0 0.357-0.024 0.547l-4.71-2.759c-0.121-0.078-0.269-0.125-0.428-0.125s-0.307 0.046-0.431 0.127l0.003-0.002-5.97 3.473zM19.814 17.458v-5.398c0-0.333-0.143-0.57-0.429-0.737l-5.97-3.473 1.95-1.118c0.067-0.045 0.149-0.071 0.238-0.071s0.171 0.027 0.24 0.072l-0.002-0.001 4.543 2.617c1.309 0.76 2.189 2.378 2.189 3.948 0 1.808-1.070 3.473-2.76 4.163zM7.802 12.703l-1.95-1.142c-0.167-0.095-0.239-0.238-0.239-0.428v-5.234c0-2.545 1.95-4.472 4.591-4.472 1 0 1.927 0.333 2.712 0.928l-4.686 2.712c-0.285 0.166-0.428 0.404-0.428 0.737v6.898zM12 15.128l-2.795-1.57v-3.33l2.795-1.57 2.795 1.57v3.33l-2.795 1.57zM13.796 22.358c-1 0-1.927-0.332-2.712-0.927l4.686-2.712c0.285-0.166 0.428-0.404 0.428-0.737v-6.898l1.974 1.142c0.167 0.095 0.238 0.238 0.238 0.428v5.233c0 2.545-1.974 4.472-4.614 4.472zM8.159 17.055l-4.544-2.617c-1.308-0.761-2.188-2.378-2.188-3.948-0-0.005-0-0.010-0-0.015 0-1.863 1.136-3.46 2.753-4.137l0.030-0.011v5.423c0 0.333 0.143 0.571 0.428 0.738l5.947 3.449-1.95 1.118c-0.067 0.045-0.149 0.071-0.238 0.071s-0.171-0.027-0.24-0.072l0.002 0.001zM7.897 20.955c-2.688 0-4.662-2.021-4.662-4.519 0-0.19 0.024-0.38 0.047-0.57l4.686 2.71c0.286 0.167 0.571 0.167 0.856 0l5.97-3.448v2.26c0 0.19-0.070 0.333-0.237 0.428l-4.543 2.616c-0.619 0.357-1.356 0.523-2.117 0.523zM13.796 23.785c0 0 0 0 0 0 2.863 0 5.253-2.023 5.82-4.717l0.007-0.039c2.664-0.69 4.377-3.189 4.377-5.733 0-1.665-0.713-3.282-1.998-4.448 0.119-0.5 0.19-0.999 0.19-1.498 0-3.401-2.759-5.947-5.946-5.947-0.642 0-1.26 0.095-1.88 0.31-1.071-1.054-2.539-1.707-4.16-1.713h-0.001c-0 0-0 0-0 0-2.863 0-5.254 2.023-5.82 4.718l-0.007 0.039c-2.665 0.69-4.378 3.188-4.378 5.733 0 1.666 0.713 3.283 1.998 4.448-0.119 0.5-0.19 1-0.19 1.499 0 3.401 2.759 5.946 5.946 5.946 0.642 0 1.26-0.095 1.88-0.309 1.071 1.055 2.54 1.708 4.161 1.713h0.001z" />
</svg>
