<svg xmlns="http://www.w3.org/2000/svg" viewBox="0 0 24 24" fill="currentColor" stroke="none" stroke-width="1" stroke-linecap="round" stroke-linejoin="round">
    <path d="M7.050 20.922c-0.228-0.127-0.403-0.232-0.573-0.342l0.040 0.024c-0.137-0.089-0.305-0.142-0.485-0.142-0.061 0-0.12 0.006-0.178 0.018l0.006-0.001-2.904 0.565 0.565-2.904c0.011-0.052 0.017-0.111 0.017-0.172 0-0.18-0.053-0.347-0.144-0.488l0.002 0.004c0.006 0.011-0.012-0.016-0.029-0.043l-0.024-0.040h-2.064c0.158 0.315 0.294 0.557 0.437 0.794l-0.030-0.053-0.583 2.996c-0.203 1.044 0.715 1.962 1.759 1.759l2.996-0.583c0.324 0.198 0.714 0.406 1.117 0.592l0.074 0.031v-2.013z" />
    <path d="M20.485 3.515c-0.543-0.543-1.137-1.035-1.774-1.467l-0.042-0.027c-0.14-0.094-0.312-0.15-0.497-0.15-0.497 0-0.9 0.403-0.9 0.9 0 0.309 0.155 0.581 0.392 0.743l0.003 0.002c0.579 0.391 1.084 0.809 1.545 1.271l0 0c0.462 0.462 0.88 0.967 1.248 1.51l0.023 0.036c0.163 0.247 0.439 0.407 0.753 0.407 0.497 0 0.9-0.403 0.9-0.9 0-0.19-0.059-0.367-0.16-0.512l0.002 0.003c-0.459-0.68-0.951-1.274-1.494-1.817l-0-0zM13.991 1.995c0.053 0.011 0.113 0.017 0.175 0.017 0.497 0 0.9-0.403 0.9-0.9 0-0.435-0.309-0.798-0.719-0.882l-0.006-0.001c-0.704-0.146-1.512-0.229-2.341-0.229s-1.637 0.083-2.418 0.242l0.078-0.013c-0.412 0.088-0.716 0.449-0.716 0.881 0 0.497 0.403 0.9 0.9 0.9 0.059 0 0.116-0.006 0.172-0.016l-0.006 0.001c0.599-0.124 1.287-0.195 1.991-0.195s1.393 0.071 2.057 0.206l-0.066-0.011zM23.77 9.659c-0.081-0.421-0.446-0.734-0.885-0.734-0.497 0-0.9 0.403-0.9 0.9 0 0.065 0.007 0.128 0.020 0.19l-0.001-0.006c0.124 0.599 0.195 1.287 0.195 1.991s-0.071 1.393-0.206 2.057l0.011-0.066c-0.012 0.055-0.019 0.118-0.019 0.182 0 0.497 0.403 0.9 0.9 0.9 0.438 0 0.803-0.313 0.883-0.727l0.001-0.006c0.146-0.704 0.229-1.512 0.229-2.341s-0.084-1.637-0.243-2.418l0.013 0.078zM21.979 18.668c0.097-0.141 0.155-0.316 0.155-0.504 0-0.497-0.403-0.9-0.9-0.9-0.312 0-0.587 0.159-0.748 0.4l-0.002 0.003c-0.391 0.579-0.809 1.084-1.271 1.545l-0 0c-0.398 0.398-0.828 0.764-1.286 1.092l-0.031 0.021c-0.231 0.165-0.379 0.432-0.379 0.734 0 0.497 0.403 0.9 0.9 0.9 0.195 0 0.376-0.062 0.524-0.168l-0.003 0.002c0.575-0.411 1.080-0.841 1.548-1.308l0-0c0.543-0.543 1.035-1.137 1.467-1.774l0.027-0.042zM6.333 3.517c0.238-0.164 0.391-0.435 0.391-0.742 0-0.497-0.403-0.9-0.9-0.9-0.183 0-0.354 0.055-0.496 0.149l0.003-0.002c-0.68 0.459-1.274 0.951-1.817 1.494l-0 0c-0.468 0.467-0.897 0.973-1.284 1.511l-0.025 0.036c-0.104 0.145-0.166 0.326-0.166 0.521 0 0.497 0.403 0.9 0.9 0.9 0.302 0 0.569-0.148 0.732-0.376l0.002-0.003c0.35-0.489 0.715-0.919 1.113-1.317l0-0c0.462-0.462 0.967-0.88 1.51-1.248l0.036-0.023zM2.19 9.199c0.022-0.074 0.034-0.159 0.034-0.246 0-0.497-0.403-0.9-0.9-0.9-0.409 0-0.755 0.273-0.864 0.647l-0.002 0.006c-0.291 0.987-0.459 2.12-0.459 3.293 0 0.254 0.008 0.506 0.023 0.756l-0.002-0.034c0.033 0.47 0.423 0.838 0.898 0.838 0.497 0 0.9-0.403 0.9-0.9 0-0.016-0-0.032-0.001-0.048l0 0.002c-0.012-0.184-0.018-0.398-0.018-0.614 0-0.998 0.143-1.962 0.408-2.873l-0.018 0.072zM15.294 23.541c0.38-0.111 0.654-0.456 0.654-0.866 0-0.088-0.013-0.172-0.036-0.253l0.002 0.006c-0.111-0.38-0.456-0.654-0.866-0.654-0.088 0-0.172 0.013-0.252 0.036l0.006-0.002c-0.839 0.248-1.804 0.39-2.801 0.39-0.216 0-0.43-0.007-0.643-0.020l0.029 0.001c-0.019-0.001-0.040-0.002-0.062-0.002-0.497 0-0.9 0.403-0.9 0.9 0 0.481 0.378 0.874 0.853 0.899l0.002 0c0.216 0.014 0.468 0.022 0.722 0.022 1.173 0 2.307-0.168 3.378-0.48l-0.085 0.021zM2.596 15.958c-0.142-0.322-0.458-0.543-0.826-0.543-0.497 0-0.9 0.403-0.9 0.9 0 0.123 0.025 0.24 0.069 0.347l-0.002-0.006c0.136 0.326 0.252 0.571 0.375 0.811l-0.031-0.067h2.064c-0.26-0.408-0.51-0.882-0.722-1.376l-0.025-0.066zM8.041 21.404c-0.56-0.237-1.033-0.487-1.483-0.772l0.041 0.024v2.064c0.173 0.092 0.417 0.207 0.666 0.314l0.077 0.030c0.103 0.044 0.222 0.070 0.348 0.070 0.497 0 0.9-0.403 0.9-0.9 0-0.371-0.224-0.689-0.544-0.827l-0.006-0.002z" />
</svg>
