<svg xmlns="http://www.w3.org/2000/svg" viewBox="0 0 24 24" fill="currentColor" stroke="none" stroke-width="1" stroke-linecap="round" stroke-linejoin="round">
    <path d="M2.522 17.688c1.391-0.004 2.517-1.131 2.52-2.521v-2.52h-2.52c-1.39 0.003-2.517 1.128-2.522 2.518v0c0.002 1.39 1.13 2.518 2.52 2.52zM8.834 12.645c-1.391 0.004-2.517 1.131-2.52 2.521v6.314c0.003 1.39 1.13 2.517 2.52 2.52 1.39-0.004 2.516-1.13 2.52-2.52v-6.316c-0.004-1.39-1.13-2.516-2.52-2.52h-0zM6.314 2.522c0.002 1.39 1.13 2.518 2.52 2.52h2.52v-2.52c-0.003-1.39-1.128-2.517-2.518-2.522h-0c-1.39 0.004-2.516 1.13-2.52 2.52v0zM11.354 8.834c-0.004-1.39-1.13-2.516-2.52-2.52h-6.314c-1.39 0.004-2.516 1.13-2.52 2.52v0c0.003 1.392 1.131 2.518 2.52 2.52h6.315c1.39-0.004 2.516-1.13 2.52-2.52v-0zM15.166 11.355c1.39-0.004 2.516-1.13 2.52-2.52v-6.316c-0.004-1.39-1.129-2.515-2.518-2.52h-0c-1.39 0.004-2.516 1.13-2.52 2.52v6.316c0.003 1.389 1.13 2.517 2.52 2.52zM21.478 6.314c-1.39 0.004-2.516 1.13-2.52 2.52v2.52h2.52c1.39-0.003 2.517-1.128 2.522-2.518v-0c-0.004-1.39-1.13-2.516-2.52-2.52h-0zM12.646 15.166c0.003 1.39 1.13 2.518 2.52 2.52h6.314c1.39-0.004 2.515-1.129 2.52-2.518v-0c-0.004-1.39-1.13-2.516-2.52-2.52h-6.314c-1.39 0.004-2.516 1.13-2.52 2.52v0zM17.686 21.478c-0.004-1.39-1.13-2.516-2.52-2.52h-2.52v2.52c0.003 1.392 1.13 2.518 2.52 2.52 1.39-0.004 2.516-1.13 2.52-2.52v-0z" />
</svg>
