<svg xmlns="http://www.w3.org/2000/svg" viewBox="0 0 24 24" fill="currentColor" stroke="none" stroke-width="1" stroke-linecap="round" stroke-linejoin="round">
	<path d="M6.114 1.728c1.493-0.808 3.028-1.3 4.693-1.474 1.615-0.169 3.16 0.008 4.706 0.449 1.448 0.412 2.716 1.138 3.926 2.014 1.464 1.059 2.567 2.426 3.39 4.001 0.586 1.122 0.966 2.335 1.122 3.612 0.253 2.076 0.102 4.096-0.657 6.063-0.462 1.198-1.1 2.281-1.913 3.273-1.648 2.011-3.767 3.262-6.27 3.859-2.629 0.627-5.198 0.425-7.693-0.665-1.519-0.664-2.881-1.547-4.015-2.751-1.652-1.752-2.815-3.767-3.127-6.197-0.1-0.781-0.241-1.574-0.206-2.354 0.118-2.576 0.945-4.904 2.581-6.933 0.958-1.188 2.109-2.125 3.462-2.896zM4.052 19.013c0.963 0.731 1.851 1.602 2.904 2.163 2.249 1.198 4.666 1.6 7.221 1.139 2.68-0.484 4.948-1.693 6.6-3.837 1.953-2.534 2.577-5.438 1.972-8.607-0.568-2.971-2.195-5.258-4.639-6.898-2.501-1.678-5.281-2.286-8.309-1.62-3.419 0.752-5.93 2.655-7.5 5.746-1.028 2.024-1.256 4.21-0.94 6.464 0.294 2.094 1.252 3.844 2.692 5.451z" />
	<path d="M18.056 18.492c-1.163 1.045-2.505 1.666-3.986 1.935-1.943 0.353-3.872 0.185-5.649-0.694-2.461-1.217-4.207-3.099-4.855-5.842-0.492-2.085-0.333-4.148 0.709-6.018 1.348-2.417 3.411-3.962 6.196-4.419 2.666-0.437 5.12 0.088 7.222 1.82 1.612 1.328 2.682 3.035 3.071 5.115 0.521 2.788-0.097 5.277-2.015 7.405-0.211 0.234-0.443 0.448-0.694 0.698zM9.564 4.66c-0.983 0.408-1.959 0.839-2.724 1.602-1.807 1.802-2.613 3.951-2.303 6.525 0.313 2.601 1.711 4.435 3.929 5.66 1.623 0.896 3.415 1.11 5.234 0.773 1.404-0.26 2.712-0.801 3.771-1.794 1.986-1.86 2.629-4.18 2.193-6.816-0.337-2.040-1.368-3.703-3.054-4.883-2.122-1.485-4.464-1.84-7.047-1.067z" />
	<path d="M16.468 8.851c0.86 1.183 1.188 2.499 0.99 3.873-0.302 2.097-1.539 3.536-3.551 4.177-2.942 0.937-5.963-0.552-6.901-3.378-0.948-2.852 0.816-5.945 3.507-6.691 2.334-0.647 4.76 0.264 5.955 2.020zM15.224 9.033c-0.762-0.936-1.802-1.362-2.954-1.398-1.457-0.046-2.698 0.495-3.59 1.71-0.797 1.085-0.902 2.307-0.641 3.562 0.515 2.474 3.073 3.552 5.3 3.010 1.49-0.362 2.515-1.351 2.897-2.864 0.369-1.464 0.085-2.816-1.012-4.020z" />
	<path d="M10.328 10.22c0.766-0.869 1.805-0.919 2.625-0.587 0.833 0.338 1.455 1.254 1.488 2.265 0.038 1.142-0.941 2.298-2.116 2.401-1.056 0.092-2.433-0.664-2.644-2.033-0.124-0.809 0.065-1.451 0.647-2.046z" />
</svg>
